# xmcd
#
# Track frame offsets:
# 150
# 16972
# 32689
# 42507
# 60357
# 80331
# 96135
#
# Disc length: 1484 seconds
#
#
# Revision: 0
# Processed by: cddbd v1.4PL0 Copyright (c) Steve Scherf et al.
# Submitted via: FreeRIP 2.20 
#
DISCID=4a05ca07
DTITLE=Avion - Modern Bulgária
DYEAR=2003
DGENRE=Blues
TTITLE0=Malac
TTITLE1=Olyan
TTITLE2=Joe
TTITLE3=Elég Volt
TTITLE4=TV
TTITLE5=Mulatós
TTITLE6=Hányás
EXTD=Szerzõi Kiadás\nA felvételek a Veszprémi Egyetem stúdiójában \nkészültek 2002 novemberében. \n(Hangmérnök Mann László), a keverés 2003\nmájusában Tatabányán \n(hangmérnök Barják András).\nwww.avion.hu
EXTT0=
EXTT1=
EXTT2=
EXTT3=
EXTT4=
EXTT5=
EXTT6=
PLAYORDER=
